<svg xmlns="http://www.w3.org/2000/svg" width="236" height="221" viewBox="0 0 236 221">
  <g fill="none" fill-rule="evenodd" stroke="#000" transform="translate(7 8)">
    <path stroke-linecap="round" stroke-width="14" d="M188,18.9980469 L188,0 L1,0.245 L1,195.72 C0.587384847,199.260486 1.0147937,201.921853 2.28222656,203.704102 C3.54965942,205.48635 5.55909953,206.251649 8.31054687,206 L203,205.558"/>
    <path stroke-width="14" d="M204.604,205.558 C195.442739,205.558 188,198.114726 188,188.953 L188,26 L221.209,26 L221.209,188.953 C221.209,198.114993 213.765993,205.558 204.604,205.558 Z"/>
    <path stroke-linejoin="round" stroke-width="12" d="M19.922,25.961 L166.442,25.961 L166.442,73.085 L19.922,73.085 L19.922,25.961 Z"/>
    <path stroke-linejoin="round" stroke-width="14" d="M18.922,108.358 L83.23,108.358 L83.23,172.671 L18.922,172.671 L18.922,108.358 Z"/>
    <path stroke-linecap="round" stroke-width="14" d="M105.470613 170.5L166.853829 170.5M105.470613 139.858L166.853829 139.858M105.470613 109.858L166.853829 109.858"/>
  </g>
</svg>
